<?xml version="1.0" standalone="no"?>
<!DOCTYPE svg PUBLIC "-//W3C//DTD SVG 20010904//EN"
 "http://www.w3.org/TR/2001/REC-SVG-20010904/DTD/svg10.dtd">
<svg version="1.0" xmlns="http://www.w3.org/2000/svg"
 width="2224.000000pt" height="2224.000000pt" viewBox="0 0 2224.000000 2224.000000"
 preserveAspectRatio="xMidYMid meet">
<metadata>
Created by potrace 1.14, written by Peter Selinger 2001-2017
</metadata>
<g transform="translate(0.000000,2224.000000) scale(0.100000,-0.100000)"
fill="#000000" stroke="none">
<path d="M4467 14213 c-3 -4 -8 -28 -11 -53 -3 -25 -8 -56 -11 -70 -3 -14 -7
-36 -10 -50 -2 -14 -7 -38 -9 -55 -3 -16 -8 -40 -10 -51 -2 -12 -7 -39 -10
-60 -4 -22 -18 -104 -32 -184 -14 -80 -27 -154 -29 -165 -2 -11 -6 -31 -9 -45
-4 -24 -14 -80 -21 -125 -2 -11 -6 -33 -9 -50 -3 -16 -13 -73 -22 -125 -9 -52
-18 -104 -20 -115 -13 -63 -16 -82 -19 -105 -2 -14 -6 -36 -9 -50 -4 -14 -8
-41 -11 -60 -3 -19 -12 -73 -20 -120 -9 -47 -20 -112 -26 -145 -5 -33 -14 -80
-19 -105 -5 -25 -12 -63 -15 -85 -3 -22 -13 -78 -21 -125 -9 -47 -18 -95 -20
-107 -2 -13 -6 -35 -9 -50 -3 -16 -8 -44 -11 -63 -2 -19 -7 -48 -11 -65 -3
-16 -7 -39 -9 -50 -7 -43 -14 -81 -18 -105 -3 -13 -8 -42 -11 -65 -3 -22 -8
-47 -10 -55 -5 -18 -15 -74 -20 -115 -2 -17 -14 -80 -26 -140 -12 -61 -23
-122 -25 -137 -6 -45 -12 -79 -24 -143 -5 -33 -13 -76 -16 -95 -3 -19 -7 -42
-9 -50 -3 -8 -7 -32 -11 -54 -3 -21 -8 -48 -10 -60 -2 -11 -11 -61 -20 -111
-16 -97 -21 -126 -29 -165 -14 -76 -47 -269 -50 -290 -2 -14 -6 -36 -9 -50 -3
-14 -12 -65 -21 -115 -8 -49 -18 -103 -20 -120 -3 -16 -8 -41 -10 -55 -3 -14
-9 -50 -15 -80 -5 -30 -12 -68 -15 -85 -2 -16 -7 -39 -9 -50 -5 -28 -18 -105
-22 -135 -3 -22 -13 -78 -27 -150 -8 -40 -26 -142 -32 -180 -3 -19 -10 -62
-16 -95 -6 -33 -13 -71 -15 -85 -3 -14 -7 -36 -9 -50 -3 -14 -10 -51 -15 -83
-6 -32 -13 -71 -15 -87 -2 -16 -6 -37 -9 -47 -3 -10 -7 -36 -11 -58 -3 -22
-12 -76 -21 -120 -8 -44 -17 -96 -20 -115 -2 -19 -9 -57 -14 -85 -17 -89 -21
-109 -26 -145 -6 -36 -7 -41 -22 -127 l-9 -51 51 -7 c28 -4 58 -9 66 -10 23
-6 131 -25 165 -30 17 -3 41 -7 55 -10 14 -3 41 -8 60 -11 42 -6 46 -7 230
-40 80 -14 156 -27 170 -30 14 -3 39 -7 55 -10 17 -2 40 -6 52 -9 26 -6 29 -2
37 50 6 37 40 230 51 285 3 13 7 41 10 62 3 20 8 50 10 65 6 43 15 85 22 113
3 14 7 34 8 45 1 11 5 33 9 49 4 16 9 50 12 75 3 25 9 62 14 81 4 19 11 57 15
84 3 27 8 52 9 55 2 3 7 26 10 51 6 43 9 62 21 120 10 52 27 146 30 172 4 25
19 112 30 168 3 14 7 39 10 55 3 17 17 95 31 175 14 80 27 154 29 165 3 21 41
240 70 400 9 50 19 107 21 128 2 21 6 42 9 46 2 5 7 28 10 52 3 24 7 51 10 59
3 8 7 31 10 50 2 19 7 46 9 60 3 14 14 79 26 145 23 133 25 143 35 200 13 69
15 79 20 110 3 17 16 92 30 168 14 76 28 155 31 175 3 20 7 44 8 52 14 82 19
108 22 125 10 50 24 133 30 169 3 21 8 48 10 60 3 11 6 30 8 41 2 11 6 34 9
50 4 17 9 46 11 65 3 19 8 47 11 63 6 33 9 51 36 202 11 66 22 130 25 143 2
12 6 32 8 45 3 12 14 76 25 142 12 66 23 130 25 141 3 12 7 37 10 55 3 19 8
45 12 59 3 14 6 32 6 40 0 8 4 31 8 50 8 30 18 92 25 140 2 18 16 97 21 125 3
11 7 36 10 55 3 19 7 42 9 50 2 8 6 29 9 45 19 117 75 436 90 510 2 11 7 40
11 65 4 25 9 52 10 61 3 13 -10 19 -63 27 -37 6 -80 13 -97 17 -29 5 -75 13
-125 21 -14 3 -47 9 -75 14 -27 6 -63 12 -80 14 -16 2 -41 7 -55 10 -14 3 -43
8 -65 11 -22 4 -62 11 -90 16 -27 5 -61 11 -75 13 -14 2 -41 7 -60 11 -19 4
-48 9 -65 11 -16 2 -40 6 -51 9 -12 4 -24 3 -27 -2z"/>
<path d="M6474 14160 c-10 -50 -12 -60 -18 -109 -3 -24 -8 -52 -11 -62 -4 -11
-8 -33 -10 -49 -4 -28 -20 -124 -31 -177 -3 -16 -11 -64 -19 -108 -7 -44 -17
-96 -20 -115 -4 -19 -8 -44 -10 -55 -1 -11 -6 -36 -9 -55 -18 -97 -29 -158
-32 -185 -3 -16 -7 -41 -10 -55 -8 -32 -8 -36 -39 -220 -34 -201 -31 -186 -44
-255 -6 -33 -13 -73 -15 -90 -3 -16 -10 -55 -16 -85 -6 -30 -13 -71 -16 -90
-2 -19 -7 -46 -9 -60 -3 -14 -8 -40 -11 -59 -3 -18 -8 -43 -10 -55 -6 -31 -23
-126 -29 -166 -3 -19 -8 -42 -10 -50 -5 -18 -17 -94 -21 -130 -1 -14 -3 -25
-4 -25 -1 0 -3 -9 -5 -20 -2 -11 -7 -36 -10 -55 -8 -40 -11 -60 -19 -110 -3
-19 -8 -46 -11 -60 -3 -14 -7 -38 -10 -55 -2 -16 -6 -40 -9 -51 -2 -12 -7 -39
-10 -60 -4 -22 -13 -77 -22 -124 -9 -47 -17 -94 -19 -105 -5 -32 -16 -98 -22
-130 -3 -16 -6 -37 -8 -45 -1 -8 -5 -28 -8 -45 -4 -16 -9 -46 -12 -65 -6 -39
-22 -131 -30 -170 -3 -13 -7 -40 -10 -60 -3 -20 -8 -47 -11 -60 -2 -14 -7 -38
-9 -55 -3 -16 -7 -41 -10 -55 -3 -14 -8 -38 -10 -55 -12 -66 -25 -142 -30
-175 -3 -19 -9 -48 -14 -65 -4 -16 -7 -42 -7 -57 1 -16 -1 -28 -5 -28 -3 0 -6
-6 -6 -12 0 -7 -3 -30 -7 -50 -3 -21 -9 -55 -12 -75 -3 -21 -7 -46 -10 -56 -3
-10 -8 -32 -10 -50 -7 -44 -10 -66 -18 -107 -6 -35 -12 -67 -22 -129 -3 -18
-8 -43 -10 -55 -3 -11 -7 -34 -9 -51 -3 -16 -7 -41 -10 -55 -3 -14 -8 -42 -11
-64 -3 -21 -7 -48 -10 -60 -8 -41 -44 -242 -49 -276 -3 -19 -12 -69 -20 -110
-8 -41 -16 -91 -19 -110 -3 -19 -12 -71 -20 -115 -9 -44 -18 -97 -22 -119 -3
-21 -8 -48 -10 -60 -6 -23 -9 -40 -19 -101 -8 -54 -24 -145 -29 -171 -2 -12
-7 -37 -10 -55 -3 -19 -8 -44 -10 -55 -2 -12 -7 -37 -10 -55 -3 -19 -8 -45
-11 -59 -2 -13 -7 -41 -10 -62 l-6 -38 58 0 c741 -4 1777 0 1783 7 7 7 35 149
45 228 2 17 4 30 5 30 2 0 9 35 16 85 3 25 8 54 10 65 2 11 6 34 9 50 3 17 10
53 15 80 5 28 12 64 14 80 6 34 54 310 60 340 2 11 7 40 11 65 4 25 9 54 11
65 5 21 31 164 38 205 22 130 47 269 50 285 2 11 16 90 30 175 31 177 34 195
41 230 2 14 18 102 34 195 17 94 32 184 35 200 3 17 8 44 11 60 3 17 10 57 16
90 6 33 13 74 15 90 3 17 9 53 15 80 5 28 11 61 14 75 3 14 8 45 11 70 3 25 8
47 9 50 2 3 6 24 9 46 4 22 9 51 11 64 7 31 14 76 20 115 2 17 8 51 13 77 5
26 7 50 4 53 -3 3 -2 5 3 5 6 0 2737 -2721 2853 -2844 21 -21 106 -106 189
-189 l153 -151 905 -1 905 0 1687 1687 c928 928 1691 1684 1694 1680 4 -4 9
-27 12 -52 3 -25 15 -92 27 -150 12 -58 23 -116 25 -130 3 -23 8 -52 19 -105
2 -11 7 -40 12 -65 9 -51 11 -59 14 -62 1 -2 3 -14 4 -28 3 -22 15 -88 20
-115 2 -5 7 -32 11 -60 5 -27 10 -52 10 -55 2 -6 14 -68 19 -100 3 -14 8 -36
11 -50 3 -14 7 -38 10 -55 2 -16 7 -43 10 -60 34 -175 74 -391 81 -435 2 -14
11 -61 20 -105 8 -44 17 -90 19 -102 2 -12 6 -36 11 -55 4 -18 8 -40 9 -48 1
-8 4 -28 8 -45 7 -34 54 -285 61 -328 6 -36 51 -276 75 -402 11 -55 23 -118
27 -140 4 -22 8 -44 9 -50 2 -5 6 -28 9 -49 4 -21 8 -48 11 -60 3 -12 7 -34
10 -51 3 -16 12 -68 21 -115 8 -47 17 -96 19 -110 2 -14 11 -54 18 -90 8 -36
18 -89 22 -117 l7 -53 41 0 c44 -1 1758 -1 1790 0 14 0 16 6 11 33 -3 17 -7
43 -9 57 -2 14 -11 57 -20 97 -8 40 -17 87 -19 105 -3 18 -5 33 -6 33 -2 0 -8
35 -15 85 -3 25 -10 59 -15 75 -5 17 -11 49 -14 72 -3 22 -8 52 -10 65 -3 12
-8 34 -10 48 -3 14 -10 50 -16 80 -6 30 -13 71 -16 90 -2 19 -6 42 -9 50 -2 8
-7 31 -10 50 -3 19 -10 55 -15 80 -5 25 -12 61 -15 80 -7 39 -12 67 -18 90 -2
8 -7 35 -11 60 -11 66 -14 85 -16 85 -1 0 -3 9 -4 20 -4 26 -17 104 -23 130
-4 20 -12 64 -18 100 -2 11 -4 22 -5 25 -1 3 -3 10 -4 15 -1 6 -5 29 -10 53
-4 23 -9 52 -11 65 -2 12 -6 32 -8 43 -3 12 -8 39 -11 60 -4 22 -8 46 -11 54
-2 8 -6 31 -9 50 -3 19 -8 46 -11 60 -3 14 -9 50 -15 80 -6 30 -12 66 -15 80
-8 39 -26 137 -31 167 -2 16 -7 39 -10 53 -3 14 -8 36 -10 50 -6 30 -64 346
-70 375 -5 23 -23 124 -29 157 -5 30 -13 68 -19 94 -2 12 -7 39 -10 60 -4 22
-8 46 -11 54 -2 8 -6 31 -9 50 -7 41 -9 57 -37 205 -11 61 -23 121 -26 135 -3
14 -7 34 -8 45 -1 11 -7 45 -14 75 -12 60 -18 87 -27 140 -4 19 -9 44 -11 55
-2 11 -6 34 -8 50 -3 17 -16 89 -30 160 -14 72 -28 146 -31 165 -2 19 -9 55
-15 80 -12 58 -29 148 -44 235 -2 11 -6 34 -9 50 -3 17 -10 55 -16 85 -11 58
-14 73 -29 155 -6 28 -12 64 -15 80 -6 37 -16 92 -31 165 -3 14 -8 42 -11 63
-7 48 -12 72 -14 72 -2 0 -6 18 -14 65 -11 67 -42 236 -51 280 -10 49 -27 146
-32 175 -2 17 -6 39 -9 50 -20 96 -46 233 -50 270 -3 22 -9 44 -13 48 -6 6
-788 11 -1165 7 -38 0 -70 -32 -1793 -1755 -966 -965 -1756 -1755 -1757 -1755
0 0 -1 790 -1 1755 0 1555 -2 1755 -15 1755 -110 4 -1793 0 -1797 -3 -2 -3 -4
-789 -4 -1747 0 -958 -2 -1741 -4 -1739 -3 2 -790 788 -1749 1747 l-1744 1743
-515 2 -516 2 -7 -35z"/>
<path d="M19638 13169 c-159 -158 -288 -291 -288 -294 0 -3 392 -397 870 -875
479 -478 870 -874 870 -880 0 -6 -391 -402 -870 -880 -478 -478 -870 -873
-870 -876 0 -9 568 -574 577 -574 4 0 527 519 1161 1153 886 886 1150 1155
1141 1164 -9 9 -9 16 -1 26 10 12 -525 552 -2286 2308 -16 16 -37 -4 -304
-272z"/>
<path d="M1166 12301 c-904 -904 -1147 -1153 -1142 -1167 4 -10 1 -21 -6 -25
-9 -6 20 -42 97 -122 61 -62 120 -119 132 -127 13 -7 21 -15 20 -17 -4 -4 131
-140 153 -153 8 -6 13 -10 10 -10 -3 0 422 -427 944 -949 l949 -949 288 288
c159 158 289 291 289 294 0 4 -394 401 -875 882 l-875 874 875 875 c481 481
875 877 875 881 0 9 -567 574 -577 574 -4 0 -525 -517 -1157 -1149z"/>
</g>
</svg>
